<svg xmlns="http://www.w3.org/2000/svg" width="38" height="38" viewBox="0 0 38 38"><g><g><path d="M21.336 16.664V.247c9.067 0 16.416 7.35 16.416 16.417zm1.167-14.095v12.927h12.928c-.53-6.9-6.027-12.398-12.928-12.927zm12.8 16.518c.022.362.055.72.055 1.087 0 9.682-7.85 17.531-17.532 17.531-9.683 0-17.532-7.849-17.532-17.531 0-9.683 7.85-17.532 17.532-17.532.367 0 .725.032 1.086.055h.094v16.296h16.297zM17.81 20.19V5.37c-8.169.008-14.789 6.632-14.789 14.803 0 8.175 6.628 14.803 14.804 14.803 8.17 0 14.794-6.62 14.802-14.788z"/><path fill="#a1f1ff" d="M21.336 16.664V.247c9.067 0 16.416 7.35 16.416 16.417zm1.167-14.095v12.927h12.928c-.53-6.9-6.027-12.398-12.928-12.927zm12.8 16.518c.022.362.055.72.055 1.087 0 9.682-7.85 17.531-17.532 17.531-9.683 0-17.532-7.849-17.532-17.531 0-9.683 7.85-17.532 17.532-17.532.367 0 .725.032 1.086.055h.094v16.296h16.297zM17.81 20.19V5.37c-8.169.008-14.789 6.632-14.789 14.803 0 8.175 6.628 14.803 14.804 14.803 8.17 0 14.794-6.62 14.802-14.788z"/></g></g></svg>