<svg xmlns="http://www.w3.org/2000/svg" width="24" height="19" viewBox="0 0 24 19"><g><g><path fill="#8a98a0" d="M21.8 18.95H2.2a1.4 1.4 0 0 1-1.4-1.4V6.35c0-.774.627-1.225 1.4-1.4 0 0 1.205-.31 3.01-.63L6.4 1.1C6.75.414 7.027.05 7.8.05h8.4c.773 0 1.05.276 1.4 1.05l1.174 3.179c1.838.333 3.07.67 3.07.67.729.132 1.356.627 1.356 1.4v11.2a1.4 1.4 0 0 1-1.4 1.4zm-.01-11.41c0-.62-.538-1.018-1.123-1.123 0 0-1.228-.297-2.942-.586l-1.277-3.457c-.284-.627-.508-.85-1.134-.85H8.686c-.627 0-.85.294-1.134.85l-1.286 3.48c-1.716.282-2.933.563-2.933.563-.62.14-1.123.502-1.123 1.122v8.893c0 .62.503 1.122 1.123 1.122h17.334c.62 0 1.122-.502 1.122-1.122zM12 16.211c-3.107 0-5.626-2.593-5.626-5.7a5.626 5.626 0 1 1 11.251 0c0 3.107-2.518 5.7-5.625 5.7zm0-10.338a4.645 4.645 0 0 0-4.645 4.645c0 2.565 2.08 4.706 4.645 4.706 2.565 0 4.645-2.14 4.645-4.706A4.645 4.645 0 0 0 12 5.874z"/></g></g></svg>