<svg xmlns="http://www.w3.org/2000/svg" width="34" height="38" viewBox="0 0 34 38"><g><g><path d="M31.04 24.852v7.02a2.34 2.34 0 0 1-2.34 2.34h-4.68c-.428 0-.825-.123-1.17-.324v1.494a2.34 2.34 0 0 1-2.34 2.34h-7.02a2.34 2.34 0 0 1-2.34-2.34v-1.494a2.316 2.316 0 0 1-1.17.324H5.3a2.34 2.34 0 0 1-2.34-2.34v-7.02a2.34 2.34 0 0 1-2.34-2.34v-9.36a2.34 2.34 0 0 1 2.34-2.34h28.08a2.34 2.34 0 0 1 2.34 2.34v9.36a2.34 2.34 0 0 1-2.34 2.34zm-22.23-1.17v-10.53H4.13a1.17 1.17 0 0 0-1.17 1.17v7.02c0 .646.524 1.17 1.17 1.17v-5.265a.585.585 0 0 1 1.17 0v13.455c0 .646.524 1.17 1.17 1.17h2.34a1.17 1.17 0 0 0 1.17-1.17v-5.004a2.33 2.33 0 0 1-1.17-2.016zm15.21-9.36a1.17 1.17 0 0 0-1.17-1.17h-11.7a1.17 1.17 0 0 0-1.17 1.17v8.19c0 .646.524 1.17 1.17 1.17h1.17v-6.435a.585.585 0 0 1 1.17 0v16.965c0 .646.524 1.17 1.17 1.17h4.68a1.17 1.17 0 0 0 1.17-1.17V17.247a.585.585 0 0 1 1.17 0v6.435h1.17a1.17 1.17 0 0 0 1.17-1.17zm7.02 0a1.17 1.17 0 0 0-1.17-1.17h-4.68v10.53a2.33 2.33 0 0 1-1.17 2.016v5.004c0 .646.524 1.17 1.17 1.17h2.34a1.17 1.17 0 0 0 1.17-1.17V17.247a.585.585 0 0 1 1.17 0v5.265a1.17 1.17 0 0 0 1.17-1.17zm-4.68-4.35a3.839 3.839 0 1 1 0-7.679 3.839 3.839 0 0 1 0 7.678zm0-5.778a1.938 1.938 0 1 0 0 3.876 1.938 1.938 0 0 0 0-3.876zM17 9.68a4.717 4.717 0 1 1 0-9.433 4.717 4.717 0 0 1 0 9.433zm0-7.093a2.376 2.376 0 1 0 0 4.753 2.376 2.376 0 0 0 0-4.753zM7.64 9.97a3.839 3.839 0 1 1 0-7.678 3.839 3.839 0 0 1 0 7.678zm0-5.777a1.938 1.938 0 1 0 0 3.876 1.938 1.938 0 0 0 0-3.876z"/><path fill="#a1f1ff" d="M31.04 24.852v7.02a2.34 2.34 0 0 1-2.34 2.34h-4.68c-.428 0-.825-.123-1.17-.324v1.494a2.34 2.34 0 0 1-2.34 2.34h-7.02a2.34 2.34 0 0 1-2.34-2.34v-1.494a2.316 2.316 0 0 1-1.17.324H5.3a2.34 2.34 0 0 1-2.34-2.34v-7.02a2.34 2.34 0 0 1-2.34-2.34v-9.36a2.34 2.34 0 0 1 2.34-2.34h28.08a2.34 2.34 0 0 1 2.34 2.34v9.36a2.34 2.34 0 0 1-2.34 2.34zm-22.23-1.17v-10.53H4.13a1.17 1.17 0 0 0-1.17 1.17v7.02c0 .646.524 1.17 1.17 1.17v-5.265a.585.585 0 0 1 1.17 0v13.455c0 .646.524 1.17 1.17 1.17h2.34a1.17 1.17 0 0 0 1.17-1.17v-5.004a2.33 2.33 0 0 1-1.17-2.016zm15.21-9.36a1.17 1.17 0 0 0-1.17-1.17h-11.7a1.17 1.17 0 0 0-1.17 1.17v8.19c0 .646.524 1.17 1.17 1.17h1.17v-6.435a.585.585 0 0 1 1.17 0v16.965c0 .646.524 1.17 1.17 1.17h4.68a1.17 1.17 0 0 0 1.17-1.17V17.247a.585.585 0 0 1 1.17 0v6.435h1.17a1.17 1.17 0 0 0 1.17-1.17zm7.02 0a1.17 1.17 0 0 0-1.17-1.17h-4.68v10.53a2.33 2.33 0 0 1-1.17 2.016v5.004c0 .646.524 1.17 1.17 1.17h2.34a1.17 1.17 0 0 0 1.17-1.17V17.247a.585.585 0 0 1 1.17 0v5.265a1.17 1.17 0 0 0 1.17-1.17zm-4.68-4.35a3.839 3.839 0 1 1 0-7.679 3.839 3.839 0 0 1 0 7.678zm0-5.778a1.938 1.938 0 1 0 0 3.876 1.938 1.938 0 0 0 0-3.876zM17 9.68a4.717 4.717 0 1 1 0-9.433 4.717 4.717 0 0 1 0 9.433zm0-7.093a2.376 2.376 0 1 0 0 4.753 2.376 2.376 0 0 0 0-4.753zM7.64 9.97a3.839 3.839 0 1 1 0-7.678 3.839 3.839 0 0 1 0 7.678zm0-5.777a1.938 1.938 0 1 0 0 3.876 1.938 1.938 0 0 0 0-3.876z"/></g></g></svg>