<svg xmlns="http://www.w3.org/2000/svg" width="16" height="14" viewBox="0 0 16 14"><g><g><path fill="#fa0afd" d="M13.156 4.386V6.58h-.712V4.386h-2.133v-.731h2.133V-.001h.712v3.656H16v.731zM6.353.73c.865.731 1.325 1.53 1.325 2.594 0 .893-.481 1.814-1.16 2.36-.664.533-.79.756-.79 1.21 0 .387.711 1.044 1.082 1.314 1.086.79 1.437 1.522 1.437 2.746C8.247 12.48 6.81 14 4.208 14 1.926 13.999 0 13.042 0 11.516c0-1.55 1.757-3.048 4.039-3.048.249 0 .476-.012.712-.012-.312-.313-.56-.706-.56-1.179 0-.28.088-.572.21-.812-.124.01-.25-.032-.381-.032-1.875 0-3.13-1.46-3.13-3.16C.89 1.612 2.622 0 4.465 0h4.11l-.92.73zm-1.88 8.137c-1.577-.018-2.99.988-2.99 2.198 0 1.234 1.14 2.26 2.717 2.26 2.217 0 2.99-.963 2.99-2.197 0-.149-.017-.294-.05-.436-.173-.698-.787-1.045-1.644-1.656a3.318 3.318 0 0 0-1.022-.169zM6.2 3.561C6.018 2.13 5.01.983 3.952.95 2.893.918 2.184 2.012 2.366 3.442c.183 1.43 1.19 2.616 2.249 2.648 1.058.033 1.768-1.1 1.585-2.53z"/><path fill="#93a6b0" d="M13.156 4.386V6.58h-.712V4.386h-2.133v-.731h2.133V-.001h.712v3.656H16v.731zM6.353.73c.865.731 1.325 1.53 1.325 2.594 0 .893-.481 1.814-1.16 2.36-.664.533-.79.756-.79 1.21 0 .387.711 1.044 1.082 1.314 1.086.79 1.437 1.522 1.437 2.746C8.247 12.48 6.81 14 4.208 14 1.926 13.999 0 13.042 0 11.516c0-1.55 1.757-3.048 4.039-3.048.249 0 .476-.012.712-.012-.312-.313-.56-.706-.56-1.179 0-.28.088-.572.21-.812-.124.01-.25-.032-.381-.032-1.875 0-3.13-1.46-3.13-3.16C.89 1.612 2.622 0 4.465 0h4.11l-.92.73zm-1.88 8.137c-1.577-.018-2.99.988-2.99 2.198 0 1.234 1.14 2.26 2.717 2.26 2.217 0 2.99-.963 2.99-2.197 0-.149-.017-.294-.05-.436-.173-.698-.787-1.045-1.644-1.656a3.318 3.318 0 0 0-1.022-.169zM6.2 3.561C6.018 2.13 5.01.983 3.952.95 2.893.918 2.184 2.012 2.366 3.442c.183 1.43 1.19 2.616 2.249 2.648 1.058.033 1.768-1.1 1.585-2.53z"/></g></g></svg>