<svg xmlns="http://www.w3.org/2000/svg" width="16" height="15" viewBox="0 0 16 15"><g><g><path fill="#fa0afd" d="M12.57 14.999V9.585c0-1.36-.496-2.29-1.738-2.29-.946 0-1.512.629-1.76 1.232-.09.217-.113.516-.113.82V15H5.53s.044-9.17 0-10.119H8.96v1.433c.457-.692 1.271-1.67 3.092-1.67C14.306 4.642 16 6.086 16 9.195v5.803zM1.917 3.497h-.023C.744 3.497 0 2.719 0 1.747 0 .756.767-.001 1.94-.001s1.896.757 1.917 1.75c0 .971-.744 1.749-1.94 1.749zm1.716 11.502H.202V4.88h3.43z"/><path fill="#93a6b0" d="M12.57 14.999V9.585c0-1.36-.496-2.29-1.738-2.29-.946 0-1.512.629-1.76 1.232-.09.217-.113.516-.113.82V15H5.53s.044-9.17 0-10.119H8.96v1.433c.457-.692 1.271-1.67 3.092-1.67C14.306 4.642 16 6.086 16 9.195v5.803zM1.917 3.497h-.023C.744 3.497 0 2.719 0 1.747 0 .756.767-.001 1.94-.001s1.896.757 1.917 1.75c0 .971-.744 1.749-1.94 1.749zm1.716 11.502H.202V4.88h3.43z"/></g></g></svg>