<svg xmlns="http://www.w3.org/2000/svg" width="16" height="16" viewBox="0 0 16 16"><g><g><path fill="#fa0afd" d="M16 3.09v9.817a3.095 3.095 0 0 1-3.092 3.091H3.092A3.095 3.095 0 0 1 0 12.907V3.09A3.095 3.095 0 0 1 3.092 0h9.816A3.095 3.095 0 0 1 16 3.09zm-4.564-1.24l.01 2.712 2.702-.009V1.842h-.353zM5.184 7.999A2.82 2.82 0 0 0 8 10.815a2.82 2.82 0 0 0 2.816-2.816c0-.613-.2-1.18-.533-1.642A2.814 2.814 0 0 0 8 5.183c-.94 0-1.771.464-2.284 1.174a2.801 2.801 0 0 0-.532 1.642zm9.257-1.642h-2.389c.206.507.323 1.061.323 1.642A4.38 4.38 0 0 1 8 12.374a4.38 4.38 0 0 1-4.375-4.375c0-.58.116-1.135.322-1.642H1.56v6.55c0 .846.687 1.533 1.533 1.533h9.816c.845 0 1.533-.687 1.533-1.533z"/><path fill="#93a6b0" d="M16 3.09v9.817a3.095 3.095 0 0 1-3.092 3.091H3.092A3.095 3.095 0 0 1 0 12.907V3.09A3.095 3.095 0 0 1 3.092 0h9.816A3.095 3.095 0 0 1 16 3.09zm-4.564-1.24l.01 2.712 2.702-.009V1.842h-.353zM5.184 7.999A2.82 2.82 0 0 0 8 10.815a2.82 2.82 0 0 0 2.816-2.816c0-.613-.2-1.18-.533-1.642A2.814 2.814 0 0 0 8 5.183c-.94 0-1.771.464-2.284 1.174a2.801 2.801 0 0 0-.532 1.642zm9.257-1.642h-2.389c.206.507.323 1.061.323 1.642A4.38 4.38 0 0 1 8 12.374a4.38 4.38 0 0 1-4.375-4.375c0-.58.116-1.135.322-1.642H1.56v6.55c0 .846.687 1.533 1.533 1.533h9.816c.845 0 1.533-.687 1.533-1.533z"/></g></g></svg>