<svg xmlns="http://www.w3.org/2000/svg" width="16" height="24" viewBox="0 0 16 24"><g><g><path d="M9.38 21.983c-.405.545-.676 1.198-1.38 1.198-.704 0-1.106-.74-1.38-1.198C4.76 18.917.212 11.895.212 8.48a7.788 7.788 0 0 1 15.575 0c0 3.414-4.503 10.348-6.407 13.502zM8 2.245a6.228 6.228 0 0 0-6.228 6.228c0 2.73 3.636 9.046 5.125 11.498.218.367.54.958 1.103.958s.78-.522 1.103-.958c1.524-2.522 5.125-8.768 5.125-11.498A6.228 6.228 0 0 0 8 2.245zM5.244 8.48a2.756 2.756 0 1 1 5.512 0 2.756 2.756 0 0 1-5.512 0zm4.68 0a1.925 1.925 0 1 0-3.85 0 1.925 1.925 0 0 0 3.85 0z"/><path fill="#7ca1b3" d="M9.38 21.983c-.405.545-.676 1.198-1.38 1.198-.704 0-1.106-.74-1.38-1.198C4.76 18.917.212 11.895.212 8.48a7.788 7.788 0 0 1 15.575 0c0 3.414-4.503 10.348-6.407 13.502zM8 2.245a6.228 6.228 0 0 0-6.228 6.228c0 2.73 3.636 9.046 5.125 11.498.218.367.54.958 1.103.958s.78-.522 1.103-.958c1.524-2.522 5.125-8.768 5.125-11.498A6.228 6.228 0 0 0 8 2.245zM5.244 8.48a2.756 2.756 0 1 1 5.512 0 2.756 2.756 0 0 1-5.512 0zm4.68 0a1.925 1.925 0 1 0-3.85 0 1.925 1.925 0 0 0 3.85 0z"/></g></g></svg>