<svg xmlns="http://www.w3.org/2000/svg" width="18" height="13" viewBox="0 0 18 13"><g><g><path d="M17.8 11.724c0 .199-.057.382-.148.542a1.098 1.098 0 0 1-.452.433 1.09 1.09 0 0 1-.5.126H1.3c-.42 0-.78-.239-.966-.584a1.088 1.088 0 0 1-.134-.517V1.274a1.1 1.1 0 0 1 1.1-1.1h15.4c.323 0 .61.142.811.363l.008.01c.04.045.079.094.111.146l.01.017a1.058 1.058 0 0 1 .16.564zm-5.713-5.087l4.6 4.6c.003-.022.013-.04.013-.062v-9.15zm4.063 5.087c.022 0 .041-.01.063-.012l-4.6-4.6-1.82 1.82a1.145 1.145 0 0 1-1.62 0L6.37 7.13l-4.583 4.583c.022.002.041.012.064.012zM1.3 2.06v9.116c0 .011.006.021.007.033l4.57-4.571zm.55-.785c-.023 0-.042.01-.064.013l6.825 6.825a.55.55 0 0 0 .778 0l6.824-6.825c-.022-.002-.04-.013-.063-.013z"/><path fill="#7ca1b3" d="M17.8 11.724c0 .199-.057.382-.148.542a1.098 1.098 0 0 1-.452.433 1.09 1.09 0 0 1-.5.126H1.3c-.42 0-.78-.239-.966-.584a1.088 1.088 0 0 1-.134-.517V1.274a1.1 1.1 0 0 1 1.1-1.1h15.4c.323 0 .61.142.811.363l.008.01c.04.045.079.094.111.146l.01.017a1.058 1.058 0 0 1 .16.564zm-5.713-5.087l4.6 4.6c.003-.022.013-.04.013-.062v-9.15zm4.063 5.087c.022 0 .041-.01.063-.012l-4.6-4.6-1.82 1.82a1.145 1.145 0 0 1-1.62 0L6.37 7.13l-4.583 4.583c.022.002.041.012.064.012zM1.3 2.06v9.116c0 .011.006.021.007.033l4.57-4.571zm.55-.785c-.023 0-.042.01-.064.013l6.825 6.825a.55.55 0 0 0 .778 0l6.824-6.825c-.022-.002-.04-.013-.063-.013z"/></g></g></svg>