<svg xmlns="http://www.w3.org/2000/svg" width="14" height="20" viewBox="0 0 14 20"><g><g><path d="M12.4 19.6H1.6a1.2 1.2 0 0 1-1.2-1.2V1.6A1.2 1.2 0 0 1 1.6.4h10.8a1.2 1.2 0 0 1 1.2 1.2v16.8a1.2 1.2 0 0 1-1.2 1.2zm0-17.4a.6.6 0 0 0-.6-.6H2.2a.6.6 0 0 0-.6.6v15.6a.6.6 0 0 0 .6.6h9.6a.6.6 0 0 0 .6-.6zm-1.2 14.4H2.8a.6.6 0 0 1-.6-.6V4a.6.6 0 0 1 .6-.6h8.4a.6.6 0 0 1 .6.6v12a.6.6 0 0 1-.6.6zm0-12.6H2.8v12h8.4zM7.9 2.8H6.1a.3.3 0 0 1 0-.6h1.8a.3.3 0 1 1 0 .6zM7 16.9a.6.6 0 1 1 0 1.2.6.6 0 0 1 0-1.2z"/><path fill="#7ca1b3" d="M12.4 19.6H1.6a1.2 1.2 0 0 1-1.2-1.2V1.6A1.2 1.2 0 0 1 1.6.4h10.8a1.2 1.2 0 0 1 1.2 1.2v16.8a1.2 1.2 0 0 1-1.2 1.2zm0-17.4a.6.6 0 0 0-.6-.6H2.2a.6.6 0 0 0-.6.6v15.6a.6.6 0 0 0 .6.6h9.6a.6.6 0 0 0 .6-.6zm-1.2 14.4H2.8a.6.6 0 0 1-.6-.6V4a.6.6 0 0 1 .6-.6h8.4a.6.6 0 0 1 .6.6v12a.6.6 0 0 1-.6.6zm0-12.6H2.8v12h8.4zM7.9 2.8H6.1a.3.3 0 0 1 0-.6h1.8a.3.3 0 1 1 0 .6zM7 16.9a.6.6 0 1 1 0 1.2.6.6 0 0 1 0-1.2z"/></g></g></svg>