<svg xmlns="http://www.w3.org/2000/svg" width="37" height="37" viewBox="0 0 37 37"><g><g><path d="M36.01 36.144H1.99A1.134 1.134 0 0 1 .856 35.01V.99a1.134 1.134 0 0 1 2.268 0v32.886H19v-1.134h1.134v1.134H30.34v-3.402h1.134v3.402h4.536a1.134 1.134 0 0 1 0 2.268zm-5.67-22.68h1.134v3.402H30.34zm1.134 14.741H30.34v-3.401h1.134zm-1.134-9.071h1.134v3.402H30.34zm-10.206 11.34H19v-3.402h1.134zM19 21.402h1.134v3.402H19zM8.794 32.742H7.66V29.34h1.134zm22.68-23.836v2.29H30.34V8.998c-.46 0-.887-.137-1.248-.367l-7.434 8.378a2.3 2.3 0 0 1 .23.99 2.321 2.321 0 0 1-2.321 2.322 2.3 2.3 0 0 1-1.478-.545l-7.074 2.79c-.235 1.101-1.118 1.927-2.221 2.156v2.35H7.66v-2.308a2.853 2.853 0 0 1 .567-5.648c1.015 0 1.9.534 2.406 1.333l6.63-2.615a2.314 2.314 0 0 1 2.304-2.156c.373 0 .721.097 1.034.254l7.541-8.499a2.316 2.316 0 0 1-.141-.773c0-.158.017-.311.046-.46-.001-.036-.01-.07-.01-.107a2.87 2.87 0 1 1 3.437 2.813zM8.936 21.464a.87.87 0 0 0-.71-.381.886.886 0 1 0 0 1.772.87.87 0 0 0 .71-.382zM30.907 5.207a.886.886 0 1 0 0 1.772.886.886 0 0 0 0-1.772z"/><path fill="#a1f1ff" d="M36.01 36.144H1.99A1.134 1.134 0 0 1 .856 35.01V.99a1.134 1.134 0 0 1 2.268 0v32.886H19v-1.134h1.134v1.134H30.34v-3.402h1.134v3.402h4.536a1.134 1.134 0 0 1 0 2.268zm-5.67-22.68h1.134v3.402H30.34zm1.134 14.741H30.34v-3.401h1.134zm-1.134-9.071h1.134v3.402H30.34zm-10.206 11.34H19v-3.402h1.134zM19 21.402h1.134v3.402H19zM8.794 32.742H7.66V29.34h1.134zm22.68-23.836v2.29H30.34V8.998c-.46 0-.887-.137-1.248-.367l-7.434 8.378a2.3 2.3 0 0 1 .23.99 2.321 2.321 0 0 1-2.321 2.322 2.3 2.3 0 0 1-1.478-.545l-7.074 2.79c-.235 1.101-1.118 1.927-2.221 2.156v2.35H7.66v-2.308a2.853 2.853 0 0 1 .567-5.648c1.015 0 1.9.534 2.406 1.333l6.63-2.615a2.314 2.314 0 0 1 2.304-2.156c.373 0 .721.097 1.034.254l7.541-8.499a2.316 2.316 0 0 1-.141-.773c0-.158.017-.311.046-.46-.001-.036-.01-.07-.01-.107a2.87 2.87 0 1 1 3.437 2.813zM8.936 21.464a.87.87 0 0 0-.71-.381.886.886 0 1 0 0 1.772.87.87 0 0 0 .71-.382zM30.907 5.207a.886.886 0 1 0 0 1.772.886.886 0 0 0 0-1.772z"/></g></g></svg>