<svg xmlns="http://www.w3.org/2000/svg" width="16" height="16" viewBox="0 0 16 16"><g><g><path fill="#fa0afd" d="M16 11.553c0 2.456-1.963 4.445-4.386 4.445-.85 0-1.643-.245-2.316-.668-.435.079-.88.126-1.336.126-4.059 0-7.348-3.324-7.348-7.42 0-.392.03-.786.092-1.167A4.476 4.476 0 0 1 0 4.448C0 1.99 1.96-.002 4.384-.002c.884 0 1.703.267 2.393.725.384-.066.78-.1 1.185-.1 4.06 0 7.343 3.32 7.343 7.412 0 .344-.025.68-.069 1.01.483.712.764 1.578.764 2.508zM3.47 5.78c-.203 2.232 2.405 3.366 4.47 3.676 1.446.217 3.419.926 2.232 2.301-1.085 1.264-3.148.482-3.688.14-.543-.346-1.152-1.582-2.168-1.515-1.015.07-1.516 1.426-.271 2.614 1.118 1.063 2.336 1.648 4.943 1.51 2.608-.136 4.945-2.473 4.03-4.672-.912-2.2-3.452-2.44-5.825-3.024-2.368-.585-1.07-2.644.849-2.611 1.862.03 2.808 2.026 3.654 1.923.847-.102 1.57-1.391.238-2.542-1.15-.998-2.608-1.546-4.84-1.34-1.755.16-3.421 1.306-3.624 3.54z"/><path fill="#93a6b0" d="M16 11.553c0 2.456-1.963 4.445-4.386 4.445-.85 0-1.643-.245-2.316-.668-.435.079-.88.126-1.336.126-4.059 0-7.348-3.324-7.348-7.42 0-.392.03-.786.092-1.167A4.476 4.476 0 0 1 0 4.448C0 1.99 1.96-.002 4.384-.002c.884 0 1.703.267 2.393.725.384-.066.78-.1 1.185-.1 4.06 0 7.343 3.32 7.343 7.412 0 .344-.025.68-.069 1.01.483.712.764 1.578.764 2.508zM3.47 5.78c-.203 2.232 2.405 3.366 4.47 3.676 1.446.217 3.419.926 2.232 2.301-1.085 1.264-3.148.482-3.688.14-.543-.346-1.152-1.582-2.168-1.515-1.015.07-1.516 1.426-.271 2.614 1.118 1.063 2.336 1.648 4.943 1.51 2.608-.136 4.945-2.473 4.03-4.672-.912-2.2-3.452-2.44-5.825-3.024-2.368-.585-1.07-2.644.849-2.611 1.862.03 2.808 2.026 3.654 1.923.847-.102 1.57-1.391.238-2.542-1.15-.998-2.608-1.546-4.84-1.34-1.755.16-3.421 1.306-3.624 3.54z"/></g></g></svg>