<svg xmlns="http://www.w3.org/2000/svg" width="16" height="13" viewBox="0 0 16 13"><g><g><path fill="#fa0afd" d="M14.362 3.237c.007.14.01.28.01.423 0 4.337-3.302 9.339-9.34 9.339A9.29 9.29 0 0 1 0 11.524c.258.03.518.045.783.045 1.54 0 2.953-.523 4.076-1.404a3.287 3.287 0 0 1-3.065-2.278 3.303 3.303 0 0 0 1.481-.057A3.287 3.287 0 0 1 .642 4.612V4.57c.444.246.95.393 1.488.41A3.28 3.28 0 0 1 .67 2.248c0-.601.162-1.165.444-1.65a9.317 9.317 0 0 0 6.766 3.43 3.282 3.282 0 0 1 3.198-4.029 3.28 3.28 0 0 1 2.395 1.035 6.542 6.542 0 0 0 2.085-.797 3.29 3.29 0 0 1-1.443 1.816A6.56 6.56 0 0 0 16 1.538a6.66 6.66 0 0 1-1.638 1.699z"/><path fill="#93a6b0" d="M14.362 3.237c.007.14.01.28.01.423 0 4.337-3.302 9.339-9.34 9.339A9.29 9.29 0 0 1 0 11.524c.258.03.518.045.783.045 1.54 0 2.953-.523 4.076-1.404a3.287 3.287 0 0 1-3.065-2.278 3.303 3.303 0 0 0 1.481-.057A3.287 3.287 0 0 1 .642 4.612V4.57c.444.246.95.393 1.488.41A3.28 3.28 0 0 1 .67 2.248c0-.601.162-1.165.444-1.65a9.317 9.317 0 0 0 6.766 3.43 3.282 3.282 0 0 1 3.198-4.029 3.28 3.28 0 0 1 2.395 1.035 6.542 6.542 0 0 0 2.085-.797 3.29 3.29 0 0 1-1.443 1.816A6.56 6.56 0 0 0 16 1.538a6.66 6.66 0 0 1-1.638 1.699z"/></g></g></svg>