<svg xmlns="http://www.w3.org/2000/svg" width="16" height="14" viewBox="0 0 16 14"><g><g><path fill="#fa0afd" d="M0 4.049l.617.785s1.276-.974 1.702-.487c.424.487 2.047 6.36 2.589 7.445.473.95 1.776 2.207 3.208 1.31 1.429-.898 6.182-4.826 7.034-9.465C16-1.001 9.429-.03 8.734 4.01c1.74-1.011 2.668.41 1.778 2.02-.89 1.608-1.701 2.657-2.127 2.657-.424 0-.75-1.076-1.236-2.957-.503-1.944-.5-5.447-2.59-5.05-1.97.375-4.56 3.368-4.56 3.368z"/><path fill="#93a6b0" d="M0 4.049l.617.785s1.276-.974 1.702-.487c.424.487 2.047 6.36 2.589 7.445.473.95 1.776 2.207 3.208 1.31 1.429-.898 6.182-4.826 7.034-9.465C16-1.001 9.429-.03 8.734 4.01c1.74-1.011 2.668.41 1.778 2.02-.89 1.608-1.701 2.657-2.127 2.657-.424 0-.75-1.076-1.236-2.957-.503-1.944-.5-5.447-2.59-5.05-1.97.375-4.56 3.368-4.56 3.368z"/></g></g></svg>