<svg xmlns="http://www.w3.org/2000/svg" width="24" height="14" viewBox="0 0 24 14"><g><g><path fill="#8a98a0" d="M21.64 13.593l-4.74-4.74v3.729a1.4 1.4 0 0 1-1.4 1.4H2.2a1.4 1.4 0 0 1-1.4-1.4v-11.2a1.4 1.4 0 0 1 1.4-1.4h13.3a1.4 1.4 0 0 1 1.4 1.4v3.733l4.74-4.74c.913-.913 1.566-.087 1.566.826v11.566c0 .912-.739 1.652-1.565.826zM15.5 2.083a.7.7 0 0 0-.7-.701H2.9a.7.7 0 0 0-.7.7v9.8a.7.7 0 0 0 .7.7h11.9a.7.7 0 0 0 .7-.7zm6.29 1.577c0-.523-.467-.997-.991-.474l-3.792 3.792L20.8 10.77c.474.474.992.05.992-.474zM12 9.782H5.7a.7.7 0 0 1-.7-.7v-4.2a.7.7 0 0 1 .7-.7H12a.7.7 0 0 1 .7.7v4.2a.7.7 0 0 1-.7.7zm.001-4.375a.525.525 0 0 0-.525-.525h-5.25a.525.525 0 0 0-.526.525v3.15c0 .29.235.525.525.525h5.251c.29 0 .525-.235.525-.525z"/></g></g></svg>