<svg xmlns="http://www.w3.org/2000/svg" width="38" height="38" viewBox="0 0 38 38"><g><g><path d="M37.9 21.44a1.26 1.26 0 0 1-1.26 1.26h-1.821c-.41 1.73-1.06 3.366-1.97 4.836l1.424 1.423a1.26 1.26 0 0 1 0 1.782l-3.564 3.564a1.26 1.26 0 0 1-1.782 0l-1.431-1.431c-1.438.882-3.032 1.521-4.716 1.928v1.838a1.26 1.26 0 0 1-1.26 1.26h-5.04a1.26 1.26 0 0 1-1.26-1.26V34.8c-1.7-.41-3.308-1.057-4.757-1.952L9.12 34.194a1.26 1.26 0 0 1-1.782 0L3.773 30.63a1.26 1.26 0 0 1 0-1.782l1.353-1.352c-.897-1.46-1.54-3.082-1.946-4.795H1.36A1.26 1.26 0 0 1 .1 21.44V16.4c0-.696.564-1.26 1.26-1.26h1.854c.41-1.655 1.043-3.222 1.912-4.637L3.773 9.15a1.26 1.26 0 0 1 0-1.782l3.564-3.563a1.26 1.26 0 0 1 1.782 0l1.344 1.344c1.449-.895 3.057-1.541 4.757-1.952V1.36c0-.696.564-1.26 1.26-1.26h5.04c.696 0 1.26.564 1.26 1.26v1.837c1.684.408 3.278 1.046 4.716 1.928l1.43-1.43a1.26 1.26 0 0 1 1.783 0l3.564 3.563a1.26 1.26 0 0 1 0 1.782l-1.423 1.423c.88 1.426 1.522 3.007 1.935 4.678h1.855c.696 0 1.26.564 1.26 1.26zM32.255 17.8a13.25 13.25 0 0 0-2.978-7.255l2.229-2.228-1.773-1.772-2.225 2.225a13.249 13.249 0 0 0-7.261-3.018V2.62H17.74v3.133a13.24 13.24 0 0 0-7.249 3.034L8.257 6.553 6.485 8.325l2.241 2.242a13.244 13.244 0 0 0-2.975 7.245h-3.19v2.507h3.2c.27 2.723 1.364 5.2 3.026 7.19L6.494 29.8l1.773 1.773 2.3-2.3a13.24 13.24 0 0 0 7.186 2.971v3.253h2.507v-3.252a13.247 13.247 0 0 0 7.185-2.979l2.297 2.298 1.773-1.773-2.293-2.293a13.238 13.238 0 0 0 3.02-7.193h3.197v-2.507zM19 24.433a5.434 5.434 0 1 1 0-10.867 5.434 5.434 0 0 1 0 10.867zm0-9.016a3.582 3.582 0 1 0 0 7.165 3.582 3.582 0 0 0 0-7.165z"/><path fill="#a1f1ff" d="M37.9 21.44a1.26 1.26 0 0 1-1.26 1.26h-1.821c-.41 1.73-1.06 3.366-1.97 4.836l1.424 1.423a1.26 1.26 0 0 1 0 1.782l-3.564 3.564a1.26 1.26 0 0 1-1.782 0l-1.431-1.431c-1.438.882-3.032 1.521-4.716 1.928v1.838a1.26 1.26 0 0 1-1.26 1.26h-5.04a1.26 1.26 0 0 1-1.26-1.26V34.8c-1.7-.41-3.308-1.057-4.757-1.952L9.12 34.194a1.26 1.26 0 0 1-1.782 0L3.773 30.63a1.26 1.26 0 0 1 0-1.782l1.353-1.352c-.897-1.46-1.54-3.082-1.946-4.795H1.36A1.26 1.26 0 0 1 .1 21.44V16.4c0-.696.564-1.26 1.26-1.26h1.854c.41-1.655 1.043-3.222 1.912-4.637L3.773 9.15a1.26 1.26 0 0 1 0-1.782l3.564-3.563a1.26 1.26 0 0 1 1.782 0l1.344 1.344c1.449-.895 3.057-1.541 4.757-1.952V1.36c0-.696.564-1.26 1.26-1.26h5.04c.696 0 1.26.564 1.26 1.26v1.837c1.684.408 3.278 1.046 4.716 1.928l1.43-1.43a1.26 1.26 0 0 1 1.783 0l3.564 3.563a1.26 1.26 0 0 1 0 1.782l-1.423 1.423c.88 1.426 1.522 3.007 1.935 4.678h1.855c.696 0 1.26.564 1.26 1.26zM32.255 17.8a13.25 13.25 0 0 0-2.978-7.255l2.229-2.228-1.773-1.772-2.225 2.225a13.249 13.249 0 0 0-7.261-3.018V2.62H17.74v3.133a13.24 13.24 0 0 0-7.249 3.034L8.257 6.553 6.485 8.325l2.241 2.242a13.244 13.244 0 0 0-2.975 7.245h-3.19v2.507h3.2c.27 2.723 1.364 5.2 3.026 7.19L6.494 29.8l1.773 1.773 2.3-2.3a13.24 13.24 0 0 0 7.186 2.971v3.253h2.507v-3.252a13.247 13.247 0 0 0 7.185-2.979l2.297 2.298 1.773-1.773-2.293-2.293a13.238 13.238 0 0 0 3.02-7.193h3.197v-2.507zM19 24.433a5.434 5.434 0 1 1 0-10.867 5.434 5.434 0 0 1 0 10.867zm0-9.016a3.582 3.582 0 1 0 0 7.165 3.582 3.582 0 0 0 0-7.165z"/></g></g></svg>